<?xml version="1.0" standalone="no"?>
<!DOCTYPE svg PUBLIC "-//W3C//DTD SVG 20010904//EN"
 "http://www.w3.org/TR/2001/REC-SVG-20010904/DTD/svg10.dtd">
<svg version="1.0" xmlns="http://www.w3.org/2000/svg"
 width="320.000000pt" height="240.000000pt" viewBox="0 0 320.000000 240.000000"
 preserveAspectRatio="xMidYMid meet">

<g transform="translate(0.000000,240.000000) scale(0.100000,-0.100000)"
fill="#000000" stroke="none">
<path d="M780 1265 c0 -35 4 -54 10 -50 6 3 10 26 10 50 0 24 -4 47 -10 50 -6
4 -10 -15 -10 -50z"/>
<path d="M810 1271 c0 -28 5 -53 10 -56 6 -4 10 6 10 22 l1 28 15 -27 c8 -16
17 -28 19 -28 3 0 4 26 4 58 -1 31 -4 47 -6 35 -5 -28 -19 -30 -26 -3 -10 39
-27 20 -27 -29z"/>
<path d="M890 1264 c0 -34 4 -53 10 -49 6 3 10 14 11 23 0 13 3 12 11 -5 18
-38 28 -26 28 32 0 30 -4 55 -10 55 -5 0 -10 -10 -11 -22 l0 -23 -11 23 c-18
37 -28 25 -28 -34z"/>
<path d="M977 1314 c-14 -14 -8 -94 8 -100 27 -11 46 16 43 60 -2 32 -7 42
-23 44 -12 2 -24 0 -28 -4z m33 -50 c0 -24 -4 -34 -12 -32 -24 8 -22 68 2 68
5 0 10 -16 10 -36z"/>
<path d="M1051 1298 c2 -41 14 -83 23 -83 5 0 15 24 21 53 13 55 4 71 -13 25
-9 -25 -11 -25 -11 -6 -1 12 -5 25 -11 28 -6 3 -9 -4 -9 -17z"/>
<path d="M1115 1278 c-4 -24 -7 -47 -8 -52 -1 -5 11 -10 26 -10 28 -2 29 -1
22 44 -4 25 -9 48 -12 53 -11 18 -22 4 -28 -35z"/>
<path d="M1160 1310 c0 -5 5 -10 10 -10 6 0 10 -21 10 -46 0 -27 4 -43 10 -39
6 3 10 24 10 46 0 21 5 39 10 39 6 0 10 5 10 10 0 6 -13 10 -30 10 -16 0 -30
-4 -30 -10z"/>
<path d="M1230 1271 c0 -28 5 -53 10 -56 6 -4 10 15 10 49 0 31 -4 56 -10 56
-5 0 -10 -22 -10 -49z"/>
<path d="M1271 1303 c0 -10 6 -36 13 -58 13 -39 13 -40 23 -15 16 41 23 90 13
90 -6 0 -10 -9 -10 -20 0 -11 -4 -20 -10 -20 -5 0 -10 9 -10 20 0 11 -4 20
-10 20 -5 0 -10 -8 -9 -17z"/>
<path d="M1350 1265 c0 -52 1 -55 24 -55 14 0 28 5 31 10 3 6 -3 10 -14 10
-27 0 -35 17 -14 29 17 9 17 10 1 16 -26 10 -22 25 7 25 14 0 25 5 25 10 0 6
-13 10 -30 10 -30 0 -30 -1 -30 -55z"/>
<path d="M1420 1310 c0 -5 5 -10 10 -10 6 0 10 -18 10 -39 0 -22 5 -43 10 -46
6 -4 10 12 10 39 0 25 5 46 10 46 6 0 10 5 10 10 0 6 -13 10 -30 10 -16 0 -30
-4 -30 -10z"/>
<path d="M1500 1265 c0 -52 1 -55 24 -55 14 0 28 5 31 10 3 6 -2 10 -13 10
-26 0 -34 11 -19 28 9 12 9 16 0 19 -22 8 -14 23 12 23 14 0 25 5 25 10 0 6
-13 10 -30 10 -30 0 -30 -1 -30 -55z"/>
<path d="M1581 1306 c-17 -20 -10 -77 11 -89 18 -12 52 8 42 25 -4 5 -11 5
-18 -1 -17 -15 -26 -4 -26 32 0 27 2 29 27 22 23 -5 25 -4 14 9 -17 20 -35 20
-50 2z"/>
<path d="M1650 1265 c0 -30 5 -55 10 -55 6 0 10 12 10 26 0 16 5 24 13 21 6
-2 12 -11 12 -20 0 -8 4 -19 8 -23 4 -4 7 19 6 52 -1 37 -3 50 -7 36 -9 -29
-26 -30 -30 -2 -7 42 -22 18 -22 -35z"/>
<path d="M1730 1264 c0 -34 4 -53 10 -49 6 3 10 14 11 23 0 13 3 12 11 -5 18
-38 28 -26 28 32 0 30 -4 55 -10 55 -5 0 -10 -10 -11 -22 l0 -23 -11 23 c-18
37 -28 25 -28 -34z"/>
<path d="M1817 1314 c-14 -14 -8 -94 8 -100 27 -11 46 16 43 60 -2 32 -7 42
-23 44 -12 2 -24 0 -28 -4z m33 -50 c0 -24 -4 -34 -12 -32 -24 8 -22 68 2 68
5 0 10 -16 10 -36z"/>
<path d="M1882 1268 c3 -46 6 -53 26 -56 12 -2 22 1 22 7 0 6 -7 11 -15 11
-11 0 -15 12 -15 45 0 25 -5 45 -11 45 -6 0 -9 -21 -7 -52z"/>
<path d="M1957 1314 c-4 -4 -7 -26 -7 -50 0 -29 5 -44 16 -48 28 -11 45 14 42
58 -2 32 -7 42 -23 44 -12 2 -24 0 -28 -4z m33 -49 c0 -19 -4 -35 -10 -35 -5
0 -10 16 -10 35 0 19 5 35 10 35 6 0 10 -16 10 -35z"/>
<path d="M2037 1314 c-4 -4 -7 -27 -7 -51 0 -47 19 -65 45 -43 20 16 19 50 -1
50 -11 0 -14 -6 -9 -21 5 -16 3 -20 -6 -17 -8 3 -14 18 -14 34 0 24 4 29 23
26 15 -1 22 2 20 10 -5 15 -40 23 -51 12z"/>
<path d="M2100 1271 c0 -28 5 -53 10 -56 6 -4 10 15 10 49 0 31 -4 56 -10 56
-5 0 -10 -22 -10 -49z"/>
<path d="M2140 1265 c0 -54 0 -55 30 -55 17 0 30 5 30 10 0 6 -9 10 -19 10
-27 0 -35 17 -14 29 17 9 17 10 1 16 -22 9 -14 25 13 25 10 0 19 5 19 10 0 6
-13 10 -30 10 -30 0 -30 -1 -30 -55z"/>
<path d="M2227 1313 c-16 -15 -6 -51 14 -56 12 -3 18 -10 14 -17 -5 -8 -10 -8
-20 0 -8 7 -16 7 -19 2 -10 -17 24 -37 42 -25 24 15 21 46 -5 58 -32 14 -29
29 4 20 23 -5 25 -4 14 9 -14 17 -33 21 -44 9z"/>
<path d="M2347 1313 c-3 -5 -7 -28 -11 -53 -6 -43 -5 -46 16 -45 30 2 32 6 23
60 -6 41 -17 56 -28 38z"/>
<path d="M2400 1271 c0 -28 5 -53 10 -56 6 -4 10 15 10 49 0 31 -4 56 -10 56
-5 0 -10 -22 -10 -49z"/>
<path d="M2295 1220 c3 -5 8 -10 11 -10 2 0 4 5 4 10 0 6 -5 10 -11 10 -5 0
-7 -4 -4 -10z"/>
<path d="M851 1143 c7 -12 15 -20 18 -17 3 2 -3 12 -13 22 -17 16 -18 16 -5
-5z"/>
<path d="M1138 1149 c19 -20 16 -61 -5 -57 -12 2 -18 13 -18 30 1 15 -3 24 -7
22 -26 -16 8 -72 37 -60 21 8 20 62 -2 71 -15 5 -16 4 -5 -6z"/>
<path d="M631 1120 c0 -27 2 -31 9 -20 9 13 12 13 23 -2 11 -14 13 -12 13 20
1 20 -1 29 -3 20 -3 -10 -11 -18 -18 -18 -7 0 -16 8 -18 18 -3 9 -5 1 -6 -18z"/>
<path d="M702 1118 c-2 -34 1 -38 21 -37 15 1 17 3 5 6 -10 2 -18 17 -21 36
-4 31 -4 31 -5 -5z"/>
<path d="M791 1134 c0 -11 3 -14 6 -6 3 7 2 16 -1 19 -3 4 -6 -2 -5 -13z"/>
<path d="M813 1134 c-3 -9 -2 -24 4 -33 13 -20 45 -21 50 -1 4 12 3 13 -5 1
-16 -23 -45 -5 -40 24 6 28 1 33 -9 9z"/>
<path d="M892 1118 c-2 -34 1 -38 21 -37 15 1 17 3 5 6 -10 2 -18 17 -21 36
-4 31 -4 31 -5 -5z"/>
<path d="M941 1133 c-2 -43 26 -72 43 -44 3 5 -2 8 -11 7 -12 -1 -20 9 -24 29
-5 22 -7 24 -8 8z"/>
<path d="M1033 1115 c0 -22 2 -30 4 -17 2 12 2 30 0 40 -3 9 -5 -1 -4 -23z"/>
<path d="M1181 1115 c2 -33 3 -35 6 -11 l5 29 19 -29 c10 -16 19 -23 19 -16 0
7 -11 25 -25 40 l-25 27 1 -40z"/>
<path d="M1221 1134 c0 -11 3 -14 6 -6 3 7 2 16 -1 19 -3 4 -6 -2 -5 -13z"/>
<path d="M1253 1115 c0 -22 2 -30 4 -17 2 12 2 30 0 40 -3 9 -5 -1 -4 -23z"/>
<path d="M1299 1123 c-7 -16 -15 -31 -17 -35 -2 -5 7 -7 20 -7 17 1 18 3 5 6
-16 4 -16 7 4 34 11 16 16 29 11 29 -5 0 -15 -12 -23 -27z"/>
<path d="M1342 1120 c0 -19 2 -27 5 -17 2 9 2 25 0 35 -3 9 -5 1 -5 -18z"/>
<path d="M1373 1118 c0 -21 1 -24 4 -10 2 12 9 20 14 17 5 -3 6 1 3 9 -10 26
-20 18 -21 -16z"/>
<path d="M1422 1130 c0 -14 2 -19 5 -12 2 6 2 18 0 25 -3 6 -5 1 -5 -13z"/>
<path d="M1445 1129 c-8 -26 16 -54 39 -46 17 7 22 37 6 37 -5 0 -7 -7 -3 -16
4 -12 1 -15 -13 -12 -14 3 -18 11 -17 31 2 32 -3 35 -12 6z"/>
<path d="M1603 1115 c0 -22 2 -30 4 -17 2 12 2 30 0 40 -3 9 -5 -1 -4 -23z"/>
<path d="M1642 1120 c0 -19 2 -27 5 -17 2 9 2 25 0 35 -3 9 -5 1 -5 -18z"/>
<path d="M1672 1120 c2 -25 8 -35 21 -36 13 -2 13 -1 2 3 -9 3 -14 12 -11 21
3 9 1 24 -5 32 -7 11 -9 6 -7 -20z"/>
<path d="M1807 1118 c8 -46 13 -48 13 -5 0 21 -4 37 -10 37 -5 0 -7 -14 -3
-32z"/>
<path d="M1842 1118 c-2 -34 1 -38 21 -37 15 1 17 3 5 6 -10 2 -18 17 -21 36
-4 31 -4 31 -5 -5z"/>
<path d="M1902 1118 c-2 -39 12 -50 36 -26 14 14 16 44 4 52 -4 2 -8 -7 -7
-21 0 -39 -23 -40 -28 -1 l-4 33 -1 -37z"/>
<path d="M1972 1120 c0 -19 2 -27 5 -17 2 9 2 25 0 35 -3 9 -5 1 -5 -18z"/>
<path d="M1995 1130 c-8 -24 10 -50 34 -49 10 0 8 4 -8 10 -18 7 -22 14 -17
34 8 30 0 34 -9 5z"/>
<path d="M2122 1118 c-2 -34 1 -38 21 -37 15 1 17 3 5 6 -10 2 -18 17 -21 36
-4 31 -4 31 -5 -5z"/>
<path d="M2203 1115 c0 -22 2 -30 4 -17 2 12 2 30 0 40 -3 9 -5 -1 -4 -23z"/>
<path d="M2302 1125 c0 -16 2 -22 5 -12 2 9 2 23 0 30 -3 6 -5 -1 -5 -18z"/>
<path d="M2393 1118 c1 -25 7 -33 22 -33 15 0 20 7 21 30 1 28 1 28 -3 3 -6
-37 -30 -36 -37 2 -6 30 -6 30 -3 -2z"/>
<path d="M2462 1115 c0 -22 2 -32 5 -22 3 11 11 16 18 13 14 -5 32 30 21 41
-3 4 -6 -1 -6 -10 0 -22 -27 -22 -33 1 -3 9 -5 -1 -5 -23z"/>
<path d="M2532 1118 c-2 -34 1 -38 21 -37 15 1 17 3 5 6 -10 2 -18 17 -21 36
-4 31 -4 31 -5 -5z"/>
<path d="M2091 1120 c0 -8 4 -22 9 -30 12 -18 12 -2 0 25 -6 13 -9 15 -9 5z"/>
<path d="M2342 1110 c0 -14 2 -19 5 -12 2 6 2 18 0 25 -3 6 -5 1 -5 -13z"/>
<path d="M777 1103 c-4 -3 -7 -11 -7 -17 0 -6 5 -5 12 2 6 6 9 14 7 17 -3 3
-9 2 -12 -2z"/>
<path d="M2268 1088 c5 -5 16 -8 23 -6 8 3 3 7 -10 11 -17 4 -21 3 -13 -5z"/>
<path d="M1287 796 c26 -28 82 -86 123 -128 l75 -78 115 0 115 0 75 78 c166
171 173 179 150 177 -12 -1 -68 -48 -133 -113 l-112 -112 -78 0 c-42 0 -77 3
-77 6 0 4 42 49 92 101 107 109 114 119 86 119 -12 0 -57 -39 -118 -103 -54
-57 -102 -103 -107 -103 -4 0 -54 46 -110 102 -58 58 -111 102 -123 103 -17 1
-13 -7 27 -49z"/>
<path d="M1470 825 c20 -19 20 -19 40 0 20 20 20 20 -20 20 -40 0 -40 0 -20
-20z"/>
</g>
</svg>
